<?xml version="1.0" encoding="utf-8"?>
<!-- Generator: Adobe Illustrator 16.0.0, SVG Export Plug-In . SVG Version: 6.00 Build 0)  -->
<!DOCTYPE svg PUBLIC "-//W3C//DTD SVG 1.1//EN" "http://www.w3.org/Graphics/SVG/1.1/DTD/svg11.dtd">
<svg version="1.1" id="Layer_1" xmlns="http://www.w3.org/2000/svg" xmlns:xlink="http://www.w3.org/1999/xlink" x="0px" y="0px"
	 width="531.906px" height="531.906px" viewBox="0 0 531.906 531.906" enable-background="new 0 0 531.906 531.906"
	 xml:space="preserve">
<path fill="#FFFFFF" d="M0,0h531.906v531.906H0V0z"/>
<g>
	<path fill="#FBD304" d="M313.884,0.271c-6.189,1.804-10.086,5.509-11.486,10.926l-0.469,1.8c-0.133,0.502-0.239,1.107-0.239,1.344
		c0,0.237-0.177,0.625-0.392,0.861c-0.217,0.237-1.238,1.478-2.272,2.758c-1.034,1.281-1.933,2.378-1.998,2.439
		c-0.063,0.061-0.462,0.56-0.884,1.109c-0.422,0.549-0.889,1.125-1.037,1.28c-0.383,0.433-0.753,0.876-1.111,1.329
		c-0.436,0.542-0.883,1.075-1.342,1.599c-0.273,0.305-0.498,0.605-0.498,0.668c0,0.062-1.822,0.127-4.047,0.144
		c-4.457,0.034-6.234,0.33-9.787,1.625c-6.709,2.445-12.231,7.548-15.414,14.242c-4.794,10.082-8.787,22.916-10.196,32.771
		c-0.13,0.915-0.362,2.561-0.514,3.659c-0.426,3.067-0.355,14.487,0.107,17.295c1.276,7.756,2.814,12.691,5.801,18.615
		c7.126,14.134,19.085,23.789,35.269,28.474c10.59,3.066,22.637,1.58,32.271-3.98l1.955-1.129l1.623,0.233
		c4.4,0.632,7.168,0.787,14.039,0.787c6.961,0,8.225-0.077,12.861-0.781c1.57-0.238,2.033-0.332,4.934-1
		c1.707-0.393,2.035-0.342,4.379,0.69c2.621,1.154,13.275,4.672,16.408,5.418c3.752,0.893,3.508,0.765,5.084,2.654
		c1.588,1.906,3.611,3.759,5.951,5.454c0.883,0.639,2.01,1.752,2.738,2.701c0.68,0.888,1.785,2.116,2.455,2.73
		c1.152,1.052,1.23,1.192,1.404,2.497c0.102,0.76,0.258,1.869,0.346,2.465c0.094,0.628,0.076,1.047-0.039,0.998
		c-0.863-0.411-1.725-0.827-2.582-1.25c-3.85-1.883-8.904-3.771-12.643-4.722l-1.662-0.423c-0.457-0.117-1.529-0.324-2.385-0.46
		c-0.918-0.146-1.836-0.298-2.752-0.453c-4.141-0.709-12.014-0.07-16.379,1.33c-2.643,0.847-6.531,2.769-7.547,3.73
		c-0.162,0.153-0.361,0.278-0.445,0.278s-0.4,0.224-0.705,0.499c-0.305,0.274-0.918,0.771-1.363,1.105
		c-0.447,0.333-0.947,0.734-1.109,0.89c-0.164,0.156-0.746,0.63-1.295,1.053c-0.549,0.424-1.131,0.898-1.293,1.054
		c-0.164,0.156-0.662,0.556-1.109,0.889c-0.447,0.332-0.861,0.656-0.924,0.72c-0.061,0.063-0.66,0.561-1.33,1.107
		c-0.449,0.36-0.895,0.729-1.33,1.107c-0.061,0.063-0.477,0.387-0.924,0.72s-0.945,0.731-1.107,0.886
		c-0.348,0.302-0.705,0.591-1.072,0.865c-0.428,0.321-1.025,0.806-1.33,1.078c-0.305,0.271-0.904,0.756-1.332,1.077
		c-0.426,0.321-0.826,0.635-0.887,0.699c-0.436,0.377-0.879,0.746-1.33,1.106c-0.449,0.361-0.893,0.729-1.33,1.107
		c-0.061,0.064-0.477,0.388-0.924,0.721c-0.445,0.332-0.945,0.732-1.107,0.889c-0.164,0.156-0.746,0.628-1.295,1.05
		c-0.549,0.422-1.047,0.821-1.109,0.887c-0.061,0.066-0.658,0.566-1.328,1.111c-0.451,0.361-0.895,0.73-1.332,1.107
		c-0.061,0.064-0.477,0.388-0.924,0.721c-0.445,0.332-0.945,0.732-1.107,0.888c-0.164,0.157-0.746,0.631-1.295,1.054
		c-0.547,0.423-1.129,0.896-1.289,1.05c-0.385,0.367-0.322,0.379-1.895-0.362c-0.748-0.353-1.811-0.841-2.359-1.083
		c-0.549-0.243-1.447-0.644-1.994-0.891c-0.918-0.4-1.842-0.784-2.773-1.151c-0.975-0.387-2.072-0.834-2.438-0.994
		c-1.08-0.472-3.693-1.465-4.768-1.812c-0.488-0.155-0.969-0.33-1.441-0.524c-0.373-0.168-5.746-1.949-7.982-2.645
		c-0.758-0.236-5.096-1.454-6.43-1.806c-0.519-0.136-1.035-0.274-1.553-0.415c-3.033-0.826-9.707-2.241-13.691-2.903
		c-0.701-0.116-1.898-0.316-2.662-0.445c-13.139-2.211-31.269-2.83-44.733-1.528c-7.748,0.749-15.383,1.883-20.731,3.079
		c-0.488,0.109-1.486,0.323-2.218,0.475c-1.261,0.262-8.272,2.004-9.811,2.439l-1.497,0.425c-0.427,0.122-1.1,0.311-1.496,0.421
		c-1.061,0.292-7.078,2.237-7.595,2.454c-0.426,0.179-1.54,0.591-4.268,1.577c-0.701,0.254-1.448,0.553-1.66,0.665
		c-0.212,0.113-0.491,0.204-0.62,0.204c-0.13,0-0.649,0.2-1.154,0.444c-0.504,0.244-1,0.443-1.1,0.443s-0.655,0.212-1.233,0.47
		c-0.578,0.258-1.35,0.596-1.716,0.752c-0.366,0.156-1.139,0.494-1.719,0.751l-2.106,0.933c-3.228,1.429-12.122,5.971-14.644,7.479
		c-0.646,0.386-1.269,0.702-1.386,0.702c-0.116,0-0.212,0.1-0.212,0.222c0,0.121-0.097,0.22-0.218,0.221
		c-0.283,0-4.082,2.263-4.179,2.489c-0.041,0.095-0.17,0.172-0.287,0.172c-0.199,0-8.822,5.675-9.063,5.964
		c-0.061,0.074-0.759,0.577-1.552,1.12c-0.793,0.542-1.491,1.046-1.552,1.119s-0.46,0.373-0.887,0.666
		c-0.427,0.293-0.826,0.588-0.887,0.656c-0.061,0.068-0.477,0.395-0.923,0.728c-0.447,0.333-0.946,0.731-1.109,0.886
		c-0.163,0.154-0.662,0.553-1.109,0.887c-0.446,0.333-0.945,0.731-1.108,0.886c-0.163,0.155-0.662,0.554-1.109,0.887
		c-0.447,0.334-0.946,0.734-1.108,0.889c-0.35,0.315-0.708,0.621-1.073,0.917c-0.767,0.628-2.93,2.534-5.313,4.681
		c-1.552,1.398-10.209,10.054-11.538,11.536c-1.664,1.856-3.677,4.164-4.348,4.985c-0.349,0.427-0.687,0.826-0.752,0.887
		c-0.064,0.061-0.565,0.658-1.112,1.327c-1.158,1.416-1.177,1.439-2.658,3.329c-0.621,0.793-1.25,1.591-1.399,1.774
		c-0.148,0.183-0.513,0.682-0.81,1.109c-0.298,0.427-0.603,0.826-0.679,0.887s-0.572,0.759-1.103,1.552
		c-0.53,0.793-1.031,1.491-1.112,1.552c-0.361,0.27-5.871,8.71-7.31,11.197c-0.368,0.63-0.739,1.259-1.114,1.885
		c-0.4,0.671-1.004,1.718-1.341,2.328c-0.337,0.61-0.975,1.757-1.418,2.55c-0.839,1.503-5.024,9.938-5.886,11.862
		c-1.747,3.904-1.791,4.009-3.217,7.65c-0.476,1.221-0.957,2.441-1.444,3.658c-0.659,1.571-3.179,9.223-3.981,12.084
		c-0.145,0.521-0.303,1.039-0.473,1.553c-0.38,1.082-1.755,6.512-2.415,9.534c-0.147,0.671-0.357,1.618-0.467,2.106
		c-0.476,2.111-0.896,4.376-1.77,9.533c-0.664,3.92-1.269,9.053-1.803,15.301c-0.384,4.494-0.383,23.234,0.001,27.716
		c0.764,8.899,1.825,16.501,3.124,22.396c0.108,0.486,0.359,1.685,0.557,2.66c0.199,0.975,0.453,2.122,0.563,2.549
		c0.614,2.367,0.734,2.84,0.903,3.549c0.279,1.166,0.645,2.51,1.574,5.764c1.608,5.637,5.392,16.117,7.426,20.572
		c0.294,0.645,0.535,1.225,0.535,1.289c0,0.613,6.932,14.379,8.335,16.549c0.293,0.455,0.534,0.879,0.534,0.945
		c0,0.063,0.681,1.238,1.514,2.609c2.432,4.006,3.021,4.928,3.198,5.006c0.091,0.041,0.166,0.172,0.166,0.293
		c0,0.213,2.363,3.797,3.999,6.063c1.404,1.947,5.4,7.314,5.531,7.43c0.07,0.061,0.471,0.559,0.891,1.107
		c0.421,0.549,0.82,1.047,0.887,1.109c0.067,0.061,0.466,0.559,0.887,1.107c0.42,0.549,0.818,1.049,0.883,1.109
		c0.064,0.061,0.665,0.76,1.334,1.551c0.437,0.523,0.88,1.041,1.329,1.555c0.062,0.059,0.856,0.957,1.765,1.994
		c2.138,2.438,11.763,12.063,14.201,14.201c0.67,0.582,1.335,1.172,1.996,1.766c0.061,0.061,0.759,0.658,1.552,1.328
		s1.491,1.27,1.552,1.336c0.061,0.064,0.56,0.461,1.109,0.881c0.548,0.422,1.047,0.82,1.108,0.887
		c0.061,0.068,0.56,0.467,1.109,0.887c0.549,0.422,1.048,0.822,1.109,0.891c0.06,0.066,1.158,0.898,2.439,1.848
		c1.28,0.947,2.494,1.859,2.696,2.025c0.203,0.164,1.301,0.924,2.439,1.686c1.139,0.762,2.121,1.453,2.182,1.537
		c0.061,0.084,0.354,0.281,0.651,0.438s0.646,0.371,0.776,0.477c0.332,0.271,4.313,2.842,5.114,3.301
		c0.365,0.211,1.356,0.807,2.201,1.324c0.823,0.504,1.655,0.994,2.495,1.469c1.621,0.895,2.803,1.551,3.729,2.076
		c1.097,0.623,9.691,4.924,10.754,5.383c0.427,0.184,1.275,0.559,1.885,0.834c7.031,3.176,17.231,6.826,25.166,9.008
		c2.158,0.594,7.172,1.863,8.315,2.105c0.61,0.129,1.508,0.326,1.996,0.436c3.605,0.816,11.142,2.09,15.632,2.641
		c7.923,0.975,10.576,1.133,21.175,1.258c11.095,0.133,13.368,0.029,23.337-1.053c4.348-0.473,9.156-1.244,14.578-2.344
		c0.977-0.197,2.024-0.4,2.33-0.453c0.305-0.051,0.902-0.186,1.33-0.297c0.426-0.111,2.471-0.617,4.545-1.121
		c2.074-0.506,4.369-1.098,5.1-1.316c0.732-0.217,2.079-0.615,2.994-0.885c2.693-0.791,9.826-3.189,11.197-3.764
		c0.244-0.102,1.291-0.512,2.328-0.91c2.275-0.875,6.012-2.441,7.98-3.35c0.793-0.365,2.139-0.979,2.988-1.365
		c3.232-1.467,10.711-5.344,11.902-6.17c0.324-0.223,0.646-0.408,0.717-0.408c0.119,0,2.621-1.477,6.012-3.553
		c7.15-4.377,18.939-13.117,23.768-17.621c0.74-0.676,1.492-1.342,2.252-1.996c2.045-1.768,11.766-11.533,13.572-13.635
		c0.785-0.916,1.58-1.813,1.766-1.996s0.783-0.883,1.328-1.553s1.047-1.27,1.115-1.33c0.07-0.061,0.801-0.959,1.623-1.996
		c0.602-0.756,1.205-1.512,1.811-2.266c2.631-3.219,10.527-14.486,10.527-15.023c0-0.125,0.074-0.229,0.166-0.229
		c0.092-0.002,0.275-0.227,0.41-0.5c0.137-0.273,0.959-1.668,1.83-3.1s1.584-2.664,1.584-2.738c0-0.072,0.188-0.398,0.414-0.723
		c0.578-0.82,1.98-3.457,4.334-8.152c2.176-4.342,3.051-6.207,4.48-9.564l0.613-1.439c0.168-0.398,0.518-1.195,0.775-1.773
		s0.469-1.195,0.469-1.373c0-0.176,0.09-0.375,0.197-0.443c0.109-0.066,0.266-0.396,0.35-0.732c0.119-0.436,0.268-0.863,0.445-1.277
		c0.508-1.162,1.006-2.549,2.025-5.639c0.545-1.656,1.072-3.209,1.176-3.453c0.199-0.479,0.891-2.707,1.344-4.324
		c0.154-0.547,0.367-1.246,0.477-1.551c0.24-0.688,2.131-8.131,2.447-9.646c0.127-0.61,0.311-1.458,0.404-1.886
		c1.832-8.23,2.934-16.037,3.773-26.717c0.295-3.752,0.293-20.047-0.002-23.615c-0.523-6.334-0.934-10.33-1.332-12.971
		c-0.111-0.731-0.314-2.078-0.449-2.994c-0.133-0.889-0.277-1.775-0.436-2.66c-0.102-0.549-0.293-1.596-0.424-2.328
		c-0.367-2.051-1.357-6.862-1.92-9.313c-0.076-0.332,0.166-0.64,0.957-1.217c0.58-0.426,1.205-0.926,1.389-1.111
		s0.699-0.609,1.145-0.941c0.447-0.332,0.947-0.732,1.109-0.889c0.162-0.155,0.744-0.629,1.295-1.053
		c0.549-0.423,1.131-0.896,1.293-1.053s0.662-0.557,1.109-0.889c0.447-0.334,0.861-0.657,0.922-0.721
		c0.063-0.063,0.66-0.562,1.33-1.106c0.672-0.546,1.271-1.046,1.332-1.112s0.561-0.463,1.107-0.884
		c0.549-0.421,1.049-0.82,1.109-0.888c0.061-0.066,0.561-0.465,1.109-0.887c0.549-0.42,1.047-0.816,1.107-0.881
		s0.584-0.494,1.158-0.958c0.453-0.358,0.896-0.729,1.33-1.108c0.156-0.147,0.65-0.541,1.096-0.873
		c0.447-0.334,0.945-0.733,1.109-0.887c0.162-0.156,0.662-0.555,1.109-0.888c0.381-0.28,0.75-0.577,1.107-0.887
		c0.162-0.154,1.344-1.125,2.625-2.157c1.279-1.032,2.379-1.932,2.439-1.997s0.51-0.411,0.998-0.765
		c2.412-1.756,7.871-7.975,7.871-8.969c0-0.119,0.08-0.248,0.178-0.289c0.164-0.067,1.098-1.908,1.891-3.731
		c1.004-2.306,2.021-6.305,2.576-10.132c0.287-1.967,0.307-10.519,0.029-12.355c-0.16-1.077-0.313-2.155-0.459-3.234
		c-0.389-2.883-1.586-8.194-2.498-11.086c-0.979-3.11-1.311-4.12-1.488-4.546c-0.232-0.588-0.457-1.179-0.674-1.773
		c-0.672-1.841-0.83-2.225-2.576-6.264c-0.498-1.153-3.455-7.069-4.072-8.149c-0.279-0.488-0.758-1.336-1.061-1.885
		c-0.994-1.792-2.154-3.657-2.324-3.732c-0.09-0.041-0.166-0.172-0.166-0.293c0-0.12-0.311-0.671-0.691-1.225l-0.693-1.006
		l0.451-0.808c3.408-6.109,5.545-11.573,6.818-17.437c1.256-5.772,0.814-13.73-1.008-18.182c-0.693-1.693-0.689-2.164,0.025-5.321
		c0.873-3.841,1.09-9.259,0.527-13.193c-0.465-3.263-0.615-3.966-1.445-6.763c-0.389-1.309-1.783-4.761-2.283-5.654
		c-0.238-0.427-0.738-1.325-1.107-1.995c-1.328-2.41-3.447-5.22-5.863-7.781c-2.072-2.194-1.926-1.986-3.387-4.858
		c-0.652-1.28-1.266-2.361-1.363-2.402c-0.098-0.041-0.18-0.17-0.18-0.287c0-0.279-1.936-3.161-3.629-5.404
		c-1.684-2.226-7.063-7.627-9.119-9.154c-0.602-0.442-1.197-0.891-1.789-1.346c-0.246-0.179-0.506-0.339-0.775-0.479
		c-0.297-0.157-0.59-0.345-0.65-0.418c-0.129-0.154-0.844-0.57-2.107-1.225c-0.488-0.253-0.936-0.51-0.998-0.571
		c-0.119-0.12-0.707-0.4-2.105-1.001c-0.488-0.21-1.188-0.516-1.553-0.679c-0.367-0.164-1.813-0.667-3.215-1.118
		c-1.402-0.452-2.762-0.98-3.02-1.173c-0.26-0.194-1.281-0.981-2.273-1.749c-2.832-2.192-10.748-6.697-11.77-6.697
		c-0.133,0-0.412-0.088-0.623-0.196c-0.992-0.504-4.043-1.589-5.707-2.029c-0.365-0.096-1.213-0.325-1.885-0.507
		c-5.027-1.366-13.254-2.311-18.188-2.089l-2.652,0.12l0.127-0.587c0.07-0.323,0.209-0.837,0.309-1.142
		c0.098-0.305,0.301-1.153,0.451-1.885c0.135-0.668,0.281-1.333,0.443-1.995c0.094-0.366,0.287-1.563,0.428-2.661
		c0.141-1.098,0.352-2.663,0.467-3.48c0.283-1.991,0.27-12.659-0.02-14.659c-0.617-4.283-1.072-6.84-1.523-8.579
		c-0.641-2.457-0.98-3.598-1.49-4.989c-0.313-0.854-0.764-2.101-1.002-2.772c-4.041-11.311-13.59-22.173-22.693-25.814
		c-2.629-1.051-3.463-1.246-5.932-1.388l-2.383-0.137l-0.004-1.464c-0.014-5.948-4.068-11.515-9.531-13.09
		c-0.549-0.158-1.287-0.375-1.641-0.483C319.367-0.066,314.859-0.013,313.884,0.271 M316.101,15.786
		c0,0.976,4.52,12.001,6.217,15.169c2.832,5.282,4.545,15.902,3.367,20.874c-0.273,1.157-0.197,1.162,1.078,0.068
		c5.219-4.472,8.033-12.451,7.139-20.229l-0.195-1.702l0.635,0.452c0.984,0.701,4.879,5.11,7.016,7.941
		c13.104,17.37,14.314,35.852,3.439,52.514c-1.414,2.166-1.445,2.196-2.455,2.335c-5.496,0.753-8.035-0.817-8.201-5.071
		c-0.064-1.676-0.143-1.917-1.414-4.38c-1.504-2.913-2.303-5.202-2.701-7.743c-0.494-3.135-3.373-2.337-5.436,1.507l-0.684,1.276
		l-0.15-1.317c-0.635-5.652-4.027-10.28-10.678-14.572c-6.182-3.989-7.769-8.395-4.674-12.979c1.02-1.511,0.588-1.303-1.221,0.589
		c-9.389,9.827-11.207,25.627-5.102,44.313l0.883,2.702l-1.025-0.403c-10.675-4.196-10.218-4.067-10.947-3.088
		c-0.598,0.8-0.559,0.883,2.764,5.899l2.902,4.383l0.291,2.106c1.211,8.718,6.6,15.269,16.775,20.391l3.498,1.761l-1.143,0.34
		c-16.863,5.008-36.195-6.415-47.615-28.133l-0.588-1.122l-0.08-7.428c-0.186-17.289,2.427-30.516,8.234-41.686
		c1.824-3.51,5.352-8.574,7.019-10.076l0.478-0.431l-0.146,0.912c-0.567,3.544,1.812,10.324,5.116,14.581
		c1.168,1.505,1.44,1.702,1.44,1.039c0-0.784,1.604-4.464,3.063-7.022c2.796-4.904,5.932-9.008,11.268-14.745
		c5.498-5.911,11.391-15.681,11.391-18.886c0-0.223,0.098-0.405,0.221-0.405c0.121,0,0.223,0.119,0.223,0.265 M331.021,97.444
		c2.803,0.594,4.193,1.46,7.143,4.447c2.064,2.09,3.309,3.124,5.543,4.604c5.605,3.712,11.916,9.153,14.043,12.108
		c1.092,1.518,0.83,3.371-0.584,4.102c-0.771,0.399-21.766,1.558-25.432,1.403c-8.965-0.378-16.961-7.249-16.961-14.574
		C314.773,102.078,323.22,95.791,331.021,97.444 M361.113,99.408c7.449,1.918,11.811,5.326,19.061,14.894
		c4.66,6.151,9.432,14.93,8.578,15.784c-0.195,0.194-12.707-2.729-14.668-3.425c-4.326-1.538-7.895-4.236-10.658-8.059
		c-3.953-5.469-9.209-11.077-14.508-15.479c-1.523-1.266-2.859-2.483-2.967-2.705c-0.34-0.693,0.389-1.522,1.365-1.554
		c0.455-0.015,2.223-0.089,3.93-0.166C355.341,98.514,358.533,98.744,361.113,99.408 M382.816,102.539
		c9.891,2.632,13.695,4.864,17.174,10.075c2.822,4.229,6.783,15.942,8.104,23.971c1.465,8.886,0.563,10.882-3.193,7.079
		c-1.207-1.197-2.469-2.337-3.779-3.417c-3.285-2.658-3.551-3.04-5.414-7.822c-3.371-8.651-9.33-18.061-17.268-27.266
		C374.072,100.095,373.935,100.176,382.816,102.539 M420.384,123.251c3.568,3.478,5.527,8.649,5.135,13.556
		c-0.943,11.809-4.072,23.352-8.867,32.705c-2.393,4.666-2.377,4.7-1.898-4.324c0.99-18.601-2.012-37.339-8.156-50.916
		c-0.504-1.113-0.916-2.084-0.916-2.156C405.681,111.814,418.998,121.899,420.384,123.251 M432.542,139.526
		c8.623,13.818,6.57,31.422-5.461,46.838c-6.164,7.896-23.354,20.171-23.803,16.997c-0.094-0.663,6.754-15.564,8.064-17.552
		c0.523-0.792,1.652-2.211,2.512-3.151c8.064-8.842,13.805-22.965,16.207-39.864c0.58-4.09,0.598-4.164,1.063-4.267
		C431.732,138.392,431.916,138.522,432.542,139.526 M378.296,173.619c6.865,1.435,14.914,5.206,22.547,10.566
		c1.311,0.92,2.438,1.844,2.504,2.051c0.109,0.342-7.361,15.086-7.645,15.087c-0.061,0.001-1.109-0.857-2.328-1.905
		c-18.959-16.292-29.545-13.506-22.006,5.793c6.662,17.051,25.57,40.426,41.084,50.786c17.643,11.783,22.479,1.362,9.848-21.226
		l-0.705-1.26l4.766-4.727c2.621-2.599,5.359-5.408,6.09-6.241l1.328-1.514l0.566,0.969c10.096,17.226,13.027,37.183,6.732,45.806
		c-0.992,1.355-34.02,28.246-36.434,29.662c-7.785,4.566-16.832,4.205-24.264-0.971c-18.836-13.121-37.943-35.171-50.322-58.074
		c-6.275-11.611-7.688-15.887-7.08-21.46c0.922-8.49,4.158-12.704,17.656-22.992c0.182-0.138,0.326,0.359,0.514,1.754
		c3.404,25.571,22.004,53.261,46.904,69.832c5.684,3.782,16.367,9.167,18.188,9.167c0.072,0-0.547-0.518-1.377-1.149
		c-22.426-17.08-41.688-46.253-46.6-70.58c-3.32-16.447,0.236-27.345,9.613-29.461c0.854-0.193,1.75-0.398,1.994-0.457
		C370.875,172.835,376.185,173.178,378.296,173.619 M439.162,177.563c0,2.94-3.656,15.691-6.219,21.692
		c-4.994,11.692-12.545,19.139-22.898,22.583c-6.752,2.246-15.867,2.266-17.535,0.038c-2.553-3.411,0.42-7.089,8.469-10.47
		c16.578-6.966,29.133-17.847,36.633-31.749C438.697,177.641,439.162,177.014,439.162,177.563 M250.47,186.916
		c17.932,0.895,34.423,4.24,50.222,10.189c3.972,1.495,8.979,3.544,8.979,3.673c0,0.037-0.309,0.75-0.686,1.585
		c-5.574,12.339-4.854,23.498,2.467,38.192c13.525,27.152,33.305,51.191,56.201,68.307c11.119,8.31,21.795,10.974,33.801,8.429
		c2.547-0.539,2.264-0.873,3.088,3.662c5.469,30.106,2.217,63.639-8.705,89.779l-0.332,0.795l-1.73-1.297
		c-2.934-2.195-5.365-3.506-11.42-6.15c-8.58-3.75-12.461-5.59-24.02-11.398c-12.66-6.363-15.707-7.454-22.057-7.905l-1.922-0.138
		l0.951,2.859c2.346,7.035,3.334,12.547,3.568,19.877c0.086,2.715,0.221,4.23,0.387,4.369c1.297,1.076,21.561,10.885,31.404,15.201
		c7.953,3.486,8.98,4.07,11.699,6.654l1.473,1.398l-0.441,0.848c-0.859,1.641-6.506,9.98-8.984,13.268
		c-11.115,14.744-24.625,27.576-39.568,37.582c-2.854,1.91-2.393,1.848-4.885,0.67c-1.219-0.576-2.438-1.148-3.658-1.717
		c-6.691-3.113-20.283-10.123-22.84-11.777c-10.987-7.111-15.823-21.629-11.497-34.514c2.229-6.641,9.43-17.469,14.603-21.961
		l0.998-0.865l0.08-3.537c0.162-7.27-1.844-13.322-5.943-17.927c-1.193-1.341-1.045-1.367-4.144,0.706
		c-8.144,5.445-12.957,10.395-20.806,21.387c-6.865,9.613-9.86,16.662-11.459,26.965c-0.378,2.432-0.379,11.262-0.002,13.525
		c2.097,12.59,7.307,22.754,15.915,31.045c5.266,5.072,8.638,7.285,20.104,13.191c2.654,1.367,2.703,1.189-0.675,2.43
		c-85.249,31.271-178.879-11.484-210.712-96.223c-16.843-44.834-12.845-95.998,10.776-137.916c2.362-4.191,2.136-4.066,2.735-1.512
		c1.842,7.854,6.207,22.443,8.281,27.676c2.391,6.033,6.112,12.099,10.441,17.021c1.756,1.997,1.815,1.997,2.015,0.002
		c0.213-2.117,1.159-6.607,1.898-9.006c1.934-6.279,4.558-11.445,8.477-16.684l0.844-1.129l-0.575-1.644
		c-4.106-11.733-8.235-28.184-10.931-43.55l-0.428-2.439l4.471-4.442c12.499-12.417,24.573-21.168,41.417-30.022l1.026-0.539
		l2.492,0.827c12.542,4.161,19.692,11.941,21.625,23.534c1.902,11.402,4.455,21.825,8.011,32.705
		c4.641,14.197-3.193,30.18-18.543,37.826c-8.548,4.259-13.163,5.979-17.189,6.406c-2.494,0.265-2.485,0.26-3.687,1.961
		c-4.632,6.563-5.952,14.629-3.682,22.518l0.471,1.639l2.673-0.148c10.727-0.596,17.427-3.021,31.498-11.4
		c24.136-14.372,39.339-43.314,33.626-64.012c-0.236-0.854-0.748-2.55-1.138-3.769c-0.986-3.078-2.808-9.401-3.324-11.53
		c-1.169-4.825-2.595-11.698-3.221-15.521c-1.416-8.652-3.747-13.922-8.889-20.089c-2.866-3.438-9.329-9.111-12.543-11.009
		c-0.843-0.498-0.8-0.624,0.312-0.913c0.518-0.135,2.239-0.588,3.824-1.006C217.62,187.988,235.131,186.151,250.47,186.916
		 M417.464,225.741c-0.326,2.222-3.674,7.201-7.771,11.561c-3.549,3.777-4.145,3.622-9.998-2.599
		c-5.602-5.951-5.584-5.877-1.248-5.88c5.926-0.005,12.346-1.161,16.99-3.058C417.324,224.994,417.576,224.991,417.464,225.741
		 M185.614,266.4c-10.897,1.191-26.33,6.186-34.203,11.068c-21.837,13.548-29.661,41.416-18.663,66.477
		c2.746,6.258,11.88,21.271,19.94,32.778c13.051,18.63,18.747,24.665,28.64,30.345c2.965,1.701,2.86,1.729,2.375-0.582
		c-1.748-8.336-1.337-17.672,1.156-26.244l0.684-2.354l-1.504-1.86c-8.81-10.893-22.874-32.206-27.271-41.327
		c-6.811-14.131-1.647-30.859,11.939-38.672c1.75-1.006,10.659-4.926,13.238-5.824c1.729-0.603,5.313-1.42,7.606-1.735
		c1.912-0.263,1.956-0.283,2.85-1.298c3.201-3.633,5.512-7.93,6.638-12.338c0.528-2.069,0.782-8.039,0.36-8.462
		C199.089,266.06,188.522,266.083,185.614,266.4 M230.298,279.102c-1.914,6.037-5.009,12.422-9.043,18.657l-1.634,2.525l1.93,3.35
		c5.503,9.549,10.933,17.576,19.368,28.628c7.079,9.276,6.703,23.504-0.931,35.204c-3.739,5.73-13.106,14.479-18.46,17.24
		c-2.395,1.233-2.649,1.457-3.006,2.645c-2.02,6.714-1.65,12.852,1.13,18.775c0.884,1.883,1.461,2.854,3.135,5.26
		c0.634,0.914,11.599-4.893,16.264-8.613c4.543-3.623,13.067-12.848,17.151-18.563c4.897-6.851,9.004-15.946,11.129-24.646
		c0.6-2.451,0.828-3.688,1.582-8.566c0.383-2.467,0.379-12.777-0.006-15.078c-1.664-9.975-3.358-13.627-11.025-23.771
		c-5.661-7.488-9.614-13.459-14.322-21.633c-3.235-5.618-6.104-9.055-10.241-12.271
		C230.899,276.362,231.194,276.278,230.298,279.102 M273.053,341.436c0.122,6.86-0.537,12.379-2.323,19.429
		c-0.21,0.811-0.41,1.623-0.6,2.439c-0.15,0.892,17.923,15.717,27.597,22.636c8.049,5.757,11.534,10.394,13.239,17.608l0.521,2.217
		c0.391,1.66,0.391,10.277,0,12.084c-1.428,6.611-2.166,8.352-6.957,16.385c-3.119,5.227-4.77,7.406-7.609,10.041l-2.105,1.957
		v2.438c0.001,7.387,2.902,14.09,8.248,19.057c2.111,1.961,1.864,1.904,3.461,0.813c4.697-3.215,10.016-8.711,13.631-14.086
		c4.15-6.172,9.625-17.27,11.66-23.633c5.646-17.654,3.424-38.672-5.533-52.343c-3.609-5.507-5.854-7.685-14.234-13.812
		c-8.18-5.979-14.196-10.793-21.223-16.985c-6.742-5.942-11.027-8.569-16.742-10.267l-1.107-0.328L273.053,341.436 M236.501,338.376
		c-9.493,2.865-15.815,6.348-26.497,14.598c-10.866,8.393-17.855,17.71-20.721,27.625c-5.147,17.803-1.384,35.34,10.752,50.111
		c5.376,6.541,22.674,21.162,39.792,33.633c9.932,7.234,16.029,10.322,24.245,12.277c2.907,0.693,2.788,0.795,1.718-1.479
		c-3.77-8.012-5.543-15.73-5.572-24.256l-0.013-3.547l-2.249-1.553c-12.659-8.736-34.475-26.715-38.283-31.549
		c-8.353-10.605-8.881-24.726-1.331-35.648c3.724-5.385,13.951-14.217,19.439-16.787c1.56-0.73,1.608-0.795,2.528-3.45
		c2.248-6.488,2.269-13.009,0.061-18.571C239.389,337.308,239.686,337.416,236.501,338.376"/>
	<path fill="#040404" d="M315.66,15.926c0,3.205-5.893,12.975-11.391,18.886c-5.336,5.737-8.473,9.841-11.268,14.745
		c-1.459,2.558-3.063,6.238-3.063,7.022c0,0.663-0.272,0.466-1.44-1.039c-3.305-4.257-5.684-11.037-5.117-14.581l0.146-0.912
		l-0.479,0.431c-1.666,1.502-5.193,6.566-7.019,10.076c-5.807,11.169-8.419,24.396-8.233,41.685l0.08,7.428l0.588,1.122
		c11.42,21.718,30.752,33.141,47.615,28.133l1.143-0.34l-3.498-1.761c-10.176-5.122-15.564-11.673-16.775-20.391l-0.292-2.106
		l-2.901-4.383c-3.322-5.016-3.361-5.099-2.765-5.899c0.729-0.979,0.273-1.108,10.948,3.088l1.025,0.403l-0.883-2.702
		c-6.105-18.686-4.287-34.486,5.102-44.313c1.809-1.892,2.24-2.1,1.221-0.589c-3.095,4.584-1.508,8.99,4.674,12.979
		c6.65,4.292,10.043,8.92,10.678,14.572l0.15,1.317l0.684-1.276c2.063-3.844,4.941-4.642,5.434-1.507
		c0.4,2.541,1.199,4.83,2.703,7.743c1.271,2.463,1.35,2.704,1.414,4.38c0.166,4.254,2.705,5.824,8.201,5.071
		c1.01-0.139,1.041-0.169,2.455-2.335c10.875-16.662,9.664-35.144-3.441-52.514c-2.135-2.831-6.029-7.24-7.014-7.941l-0.635-0.452
		l0.195,1.702c0.895,7.778-1.922,15.757-7.139,20.229c-1.275,1.094-1.352,1.089-1.078-0.068c1.178-4.972-0.537-15.592-3.367-20.874
		c-1.697-3.168-6.217-14.193-6.217-15.169c0-0.146-0.1-0.265-0.221-0.265C315.757,15.521,315.66,15.703,315.66,15.926
		 M326.353,97.364c-12.123,2.019-15.568,15.673-5.727,22.696c5.766,4.114,8.053,4.443,24.736,3.557
		c13.066-0.695,13.09-0.7,13.09-3.284c0-2.104-7.129-8.793-14.746-13.838c-2.234-1.48-3.48-2.514-5.543-4.604
		C334.103,97.779,331.001,96.59,326.353,97.364 M351.246,98.698c-1.707,0.077-3.477,0.151-3.93,0.166
		c-0.977,0.032-1.705,0.861-1.365,1.554c0.107,0.222,1.443,1.439,2.967,2.705c5.299,4.402,10.555,10.01,14.508,15.479
		c2.764,3.823,6.332,6.521,10.658,8.059c1.961,0.696,14.473,3.619,14.668,3.425c0.49-0.49-2.189-6.339-4.689-10.24
		C373.462,103.31,365.328,98.066,351.246,98.698 M375.673,101.035c-0.365,0.364,0.029,0.952,2.764,4.124
		c7.939,9.205,13.898,18.615,17.27,27.266c1.863,4.782,2.129,5.164,5.414,7.822c1.311,1.08,2.572,2.22,3.777,3.417
		c3.758,3.803,4.658,1.807,3.195-7.079c-0.973-5.913-4.461-17.233-6.631-21.528c-2.162-4.275-6.488-8.334-10.869-10.198
		C387.794,103.668,376.05,100.658,375.673,101.035 M428.185,110.643c0.479,0.488,0.916,0.887,0.979,0.887
		c0.061,0-0.279-0.399-0.756-0.887s-0.916-0.887-0.977-0.887S427.71,110.155,428.185,110.643 M405.681,112.116
		c0,0.072,0.412,1.043,0.916,2.156c6.145,13.577,9.146,32.315,8.156,50.916c-0.479,9.024-0.494,8.99,1.896,4.324
		c4.797-9.353,7.926-20.896,8.869-32.705c0.393-4.907-1.566-10.078-5.135-13.556C418.998,121.899,405.681,111.814,405.681,112.116
		 M267.542,128.229c0,0.038,0.325,0.362,0.721,0.721l0.721,0.651l-0.65-0.721C267.726,128.209,267.542,128.058,267.542,128.229
		 M431.125,138.527c-0.465,0.103-0.482,0.177-1.064,4.267c-2.4,16.899-8.141,31.022-16.207,39.864
		c-0.857,0.94-1.986,2.359-2.51,3.151c-1.311,1.988-8.158,16.889-8.064,17.552c0.449,3.174,17.639-9.101,23.803-16.997
		c11.229-14.387,13.791-30.365,7.043-43.903C432.361,138.922,431.923,138.35,431.125,138.527 M369.871,173.075
		c-0.244,0.059-1.143,0.264-1.994,0.457c-9.377,2.116-12.934,13.014-9.613,29.461c4.912,24.327,24.174,53.5,46.6,70.581
		c0.83,0.631,1.449,1.149,1.377,1.149c-1.82,0-12.504-5.386-18.188-9.167c-24.9-16.571-43.5-44.261-46.906-69.832
		c-0.186-1.395-0.33-1.892-0.512-1.754c-11.049,8.422-14.697,12.328-16.496,17.671c-2.232,6.635-1.688,11.553,2.162,19.467
		c12.707,26.132,33.072,50.754,54.08,65.388c7.43,5.176,16.479,5.537,24.262,0.971c2.416-1.416,35.443-28.307,36.436-29.662
		c6.295-8.623,3.361-28.58-6.732-45.806l-0.566-0.969l-1.328,1.514c-0.73,0.833-3.471,3.642-6.09,6.241l-4.766,4.727l0.705,1.26
		c12.631,22.588,7.795,33.01-9.848,21.226c-15.514-10.36-34.422-33.735-41.084-50.786c-7.539-19.299,3.047-22.085,22.006-5.793
		c1.219,1.048,2.268,1.906,2.328,1.905c0.283-0.001,7.754-14.745,7.645-15.087c-0.297-0.936-8.068-5.879-13.229-8.414
		C383.101,174.375,373.673,172.164,369.871,173.075 M437.611,179.657c-7.5,13.902-20.055,24.783-36.633,31.749
		c-8.049,3.381-11.021,7.059-8.469,10.47c1.668,2.228,10.783,2.208,17.535-0.038c14.734-4.902,24.1-18.423,28.557-41.227
		C439.408,176.485,439.349,176.43,437.611,179.657 M235.725,186.936c-11.2,0.551-22.911,2.32-33.038,4.992
		c-1.585,0.418-3.306,0.871-3.824,1.006c-1.112,0.289-1.155,0.415-0.312,0.913c3.214,1.898,9.677,7.571,12.543,11.009
		c5.142,6.167,7.473,11.437,8.889,20.089c0.626,3.823,2.052,10.696,3.221,15.521c0.516,2.129,2.338,8.452,3.324,11.53
		c3.281,10.248,3.184,17.791-0.364,28.46c-5.249,15.781-17.238,30.457-32.124,39.32c-14.071,8.379-20.771,10.805-31.498,11.4
		l-2.673,0.148l-0.471-1.639c-2.27-7.889-0.95-15.955,3.682-22.518c1.202-1.701,1.193-1.696,3.687-1.961
		c4.026-0.428,8.641-2.147,17.189-6.405c15.35-7.647,23.184-23.63,18.543-37.827c-3.556-10.88-6.109-21.303-8.011-32.705
		c-1.933-11.593-9.083-19.373-21.625-23.534l-2.492-0.827l-1.026,0.539c-16.844,8.855-28.918,17.606-41.417,30.023l-4.471,4.442
		l0.428,2.439c2.696,15.366,6.825,31.816,10.931,43.55l0.575,1.644l-0.844,1.129c-3.919,5.238-6.543,10.404-8.477,16.684
		c-0.739,2.398-1.685,6.889-1.898,9.006c-0.2,1.995-0.259,1.995-2.015-0.002c-4.329-4.923-8.05-10.988-10.441-17.021
		c-2.074-5.232-6.439-19.822-8.281-27.676c-0.599-2.554-0.373-2.679-2.735,1.512c-23.621,41.919-27.619,93.083-10.776,137.916
		c31.833,84.738,125.463,127.494,210.712,96.223c3.378-1.24,3.328-1.063,0.675-2.43c-11.467-5.906-14.839-8.119-20.104-13.191
		c-8.607-8.291-13.817-18.455-15.915-31.045c-0.377-2.264-0.376-11.094,0.002-13.525c1.599-10.303,4.594-17.352,11.459-26.965
		c7.849-10.992,12.662-15.941,20.806-21.387c3.099-2.072,2.95-2.047,4.144-0.706c4.1,4.604,6.105,10.657,5.943,17.927l-0.08,3.537
		l-0.998,0.867c-5.173,4.49-12.373,15.318-14.604,21.959c-4.325,12.885,0.511,27.402,11.498,34.514
		c2.557,1.654,16.148,8.664,22.84,11.777c0.914,0.426,2.561,1.197,3.658,1.717c2.492,1.178,2.031,1.24,4.885-0.67
		c14.943-10.006,28.453-22.836,39.568-37.582c2.479-3.287,8.125-11.627,8.984-13.268l0.441-0.848l-1.473-1.398
		c-2.719-2.584-3.746-3.168-11.699-6.654c-9.844-4.316-30.107-14.125-31.404-15.201c-0.166-0.139-0.301-1.654-0.387-4.369
		c-0.234-7.33-1.223-12.842-3.568-19.877l-0.951-2.858l1.922,0.137c6.35,0.451,9.396,1.542,22.057,7.905
		c11.557,5.809,15.439,7.648,24.02,11.398c6.055,2.645,8.486,3.955,11.42,6.152l1.73,1.295l0.332-0.793
		c10.922-26.143,14.174-59.675,8.705-89.781c-0.824-4.535-0.541-4.201-3.088-3.662c-12.006,2.545-22.682-0.119-33.801-8.429
		c-22.896-17.116-42.676-41.155-56.201-68.307c-7.32-14.694-8.041-25.853-2.467-38.192c0.377-0.835,0.686-1.548,0.686-1.585
		c0-0.129-5.008-2.178-8.979-3.673C280.339,189.442,257.499,185.867,235.725,186.936 M415.437,225.765
		c-4.645,1.897-11.064,3.053-16.99,3.058c-4.336,0.003-4.354-0.071,1.248,5.88c5.854,6.221,6.447,6.376,9.998,2.599
		c4.098-4.36,7.445-9.339,7.771-11.561C417.576,224.991,417.324,224.994,415.437,225.765 M199.399,266.371
		c0.422,0.423,0.168,6.393-0.36,8.462c-1.126,4.408-3.437,8.705-6.638,12.338c-0.894,1.015-0.938,1.035-2.85,1.298
		c-2.293,0.315-5.877,1.133-7.606,1.735c-2.579,0.898-11.488,4.818-13.238,5.824c-13.586,7.813-18.75,24.541-11.939,38.672
		c4.397,9.121,18.461,30.434,27.271,41.327l1.504,1.86l-0.684,2.354c-2.493,8.572-2.904,17.908-1.156,26.244
		c0.485,2.311,0.59,2.283-2.375,0.582c-9.893-5.68-15.589-11.715-28.64-30.345c-8.06-11.507-17.194-26.521-19.94-32.778
		c-10.998-25.061-3.174-52.929,18.663-66.477c6.316-3.918,20.283-8.872,29.325-10.402
		C185.908,266.191,198.743,265.713,199.399,266.371 M233.32,278.244c4.137,3.217,7.006,6.653,10.241,12.271
		c4.708,8.174,8.661,14.145,14.322,21.633c7.667,10.145,9.361,13.797,11.025,23.771c0.385,2.301,0.389,12.611,0.006,15.078
		c-0.754,4.879-0.982,6.115-1.582,8.566c-2.125,8.7-6.232,17.796-11.129,24.646c-4.084,5.715-12.608,14.939-17.151,18.563
		c-4.665,3.721-15.63,9.527-16.264,8.613c-1.674-2.408-2.251-3.377-3.135-5.26c-2.519-5.367-3.096-11.66-1.578-17.213
		c0.789-2.89,0.71-2.793,3.454-4.207c5.354-2.762,14.721-11.51,18.46-17.24c7.634-11.7,8.01-25.928,0.931-35.205
		c-8.435-11.051-13.865-19.078-19.368-28.627l-1.93-3.35l1.634-2.525c4.034-6.235,7.129-12.62,9.043-18.657
		C231.194,276.278,230.899,276.362,233.32,278.244 M276.856,338.4c4.806,1.898,8.008,4.025,13.97,9.28
		c7.026,6.192,13.043,11.007,21.223,16.985c8.381,6.127,10.625,8.305,14.234,13.812c6.623,10.108,10.051,26.54,8.262,39.595
		c-1.545,11.273-4.869,20.309-11.947,32.492c-4.244,7.303-10.182,13.943-16.072,17.975c-1.598,1.092-1.35,1.148-3.461-0.813
		c-5.346-4.967-8.247-11.67-8.248-19.057v-2.439l2.105-1.955c2.84-2.635,4.49-4.814,7.608-10.041
		c4.792-8.033,5.53-9.773,6.958-16.385c0.391-1.807,0.391-10.424,0-12.084l-0.521-2.217c-1.705-7.215-5.19-11.852-13.239-17.608
		c-9.675-6.919-27.747-21.744-27.597-22.636c0.021-0.122,0.291-1.221,0.6-2.439c1.786-7.05,2.445-12.568,2.322-19.429l-0.076-4.351
		l1.107,0.328C274.694,337.595,275.941,338.039,276.856,338.4 M240.37,339.781c2.208,5.563,2.187,12.083-0.061,18.571
		c-0.92,2.655-0.968,2.72-2.528,3.45c-5.488,2.57-15.715,11.402-19.439,16.787c-7.55,10.923-7.022,25.043,1.331,35.648
		c3.808,4.834,25.624,22.813,38.283,31.549l2.249,1.553l0.013,3.547c0.029,8.525,1.802,16.244,5.572,24.256
		c1.07,2.273,1.189,2.172-1.718,1.479c-8.216-1.955-14.313-5.043-24.245-12.277c-17.118-12.471-34.416-27.092-39.792-33.633
		c-12.136-14.771-15.899-32.309-10.752-50.111c2.866-9.915,9.855-19.232,20.721-27.625c10.682-8.25,17.004-11.732,26.497-14.598
		C239.686,337.416,239.389,337.308,240.37,339.781"/>
</g>
</svg>
